PathFileType	4	(X/Y/Z)	Patient4_TMGait_0pt7_02_right_28.trc.trc
DataRate	CameraRate	NumFrames	NumMarkers	Units	OrigDataRate	OrigDataStartFrame	OrigNumFrames
85.889570552147	85.889570552147	4	33	mm	85.889570552147	106	       141
Frame#	Time	Sacral			L.Shoulder			Chest			R.Shoulder			Neck			R.ASIS			L.ASIS			R.Thigh.Superior			R.Thigh.Lateral			R.Thigh.Inferior			R.Patella			L.Thigh.Superior			L.Thigh.Lateral			L.Thigh.Inferior			L.Patella			L.Shank.Superior			L.Shank.Lateral			L.Shank.Inferior			R.Shank.Superior			R.Shank.Lateral			R.Shank.Inferior			R.Heel			R.Midfoot.Superior			R.Midfoot.Lateral			R.Toe			L.Heel			L.Midfoot.Lateral			L.Midfoot.Superior			L.Toe			L.Elbow			L.Wrist			R.Elbow			R.Wrist			
		X1	Y1	Z1	X2	Y2	Z2	X3	Y3	Z3	X4	Y4	Z4	X5	Y5	Z5	X6	Y6	Z6	X7	Y7	Z7	X8	Y8	Z8	X9	Y9	Z9	X10	Y10	Z10	X11	Y11	Z11	X12	Y12	Z12	X13	Y13	Z13	X14	Y14	Z14	X15	Y15	Z15	X16	Y16	Z16	X17	Y17	Z17	X18	Y18	Z18	X19	Y19	Z19	X20	Y20	Z20	X21	Y21	Z21	X22	Y22	Z22	X23	Y23	Z23	X24	Y24	Z24	X25	Y25	Z25	X26	Y26	Z26	X27	Y27	Z27	X28	Y28	Z28	X29	Y29	Z29	X30	Y30	Z30	X31	Y31	Z31	X32	Y32	Z32	X33	Y33	Z33	

106	32.582500000000	823.906202682744	1021.945852600313	424.827236372754	1038.422370758847	1435.087074352832	246.799696731583	1133.155227861477	1355.442191751913	409.560629749110	1054.013288553171	1436.862133279318	582.578960807284	1040.977166259389	1496.144421562070	402.543141951692	1039.360757733547	950.210370805529	553.635016051107	1040.725185445684	956.127292184657	280.097931165694	1127.052157124316	793.695206031842	529.023707843602	1096.608403063784	672.563423632508	605.487146025606	1190.341725316690	638.527156960421	527.898442699875	1218.596643577771	528.280358492160	552.796266260127	1073.999568544428	743.784885211422	311.793228834306	976.772851670386	636.807554431355	248.468209963006	1050.831747488427	551.642611327332	314.606806432754	1044.903477916904	482.066880238008	324.352962066525	1012.492603563385	412.500419190904	313.813718237061	915.430005770551	306.471529680223	259.309456148235	953.087583671287	190.863069722545	330.943889603157	1149.554774927615	447.401854600640	561.077888088803	1030.713291285840	395.159618772851	615.937537611078	1034.051048033341	283.035733327715	571.826337166495	845.753570320365	198.823496009624	534.634555858186	1016.074721418438	157.139723325401	588.236435808297	904.706661088607	145.219044577700	612.359337691609	1088.109817074706	50.406826572469	619.294902235117	813.933945020581	39.771790642150	367.433486897827	889.023368885099	36.006465312388	287.985403766792	972.508140661788	95.942882802340	316.469935692172	1101.270876533675	40.457250168491	289.062045814685	1031.285306600313	1100.547433757095	94.062027786451	1220.424476668402	925.133731612067	133.205600727758	1008.817827541864	1091.971029043753	699.068113712590	1221.548789930399	950.637905528354	659.231518674486	
107	32.594142857143	823.296063488865	1022.060505415932	423.733142660992	1040.276000705970	1435.225896847991	246.831200524364	1133.081512731957	1355.370769387992	410.585856983372	1052.201604875281	1436.893296554481	582.716294829294	1040.949682158225	1496.175672262102	402.551935687270	1038.085915803383	950.940260999092	554.589713279636	1040.990182613665	955.824229956190	280.927697953207	1127.425127881889	796.984384045191	529.729254522189	1099.215227425148	675.131148797426	605.841853813994	1193.137388090076	642.531891911762	528.082757243148	1223.912844712897	533.756481212322	553.188831224257	1071.193085559227	742.462141993656	313.750079536667	973.267074354902	636.769114374663	248.512467125741	1045.240506330669	550.623677089577	315.361997198025	1038.189136052554	481.289223691783	324.896568543513	1005.792452334571	412.038544672558	314.077009064906	908.504873925173	306.411637030144	259.276145537937	945.375487102834	190.683625467135	331.037274668548	1158.614202928147	450.619744257126	561.450788314708	1043.227778248866	392.094992234954	616.936592219749	1052.134372042406	280.355074890511	572.456024328532	868.298284845292	185.887646921065	536.330975756192	1041.185699910603	154.071765401601	588.946807776444	930.721195889494	135.709011110781	613.504294877956	1119.229304342803	51.468133349652	619.203196383645	805.733944308673	39.861256897921	367.336962401518	880.834101669270	36.015384223152	287.964023415411	964.353528721236	95.934133949938	316.461979713149	1093.081110820217	40.389574625365	289.051440636184	1040.011907346543	1101.983134564725	92.620929376200	1238.562229800363	938.595007837938	134.901911868891	1002.412270577813	1092.219677684121	699.130762742664	1203.060564708810	931.454514205150	666.445297952464	
108	32.605785714286	822.820425845931	1022.009683218787	422.868136330632	1042.156217543238	1435.204372960378	247.009400663237	1133.087686039727	1355.168903884716	411.714920891367	1050.518689788835	1436.811448167456	582.936056732599	1041.018206428495	1496.065791775193	402.662839690328	1037.054308311184	951.502399244321	555.664787406668	1041.406234916483	955.515679708250	281.805663936084	1127.586094043971	799.615334981612	530.444477841787	1101.212892596156	677.086880579544	606.236463057738	1195.148221402186	645.648024017089	528.304967641025	1228.177551158303	538.565994771843	553.556480907110	1068.453702377417	741.085011724668	315.662951267533	969.761165818289	636.684854587509	248.584961494491	1039.665459509611	549.577786264724	316.050314144713	1031.517382110634	480.524378159585	325.361737370111	999.119564816065	411.559352580585	314.314938207849	901.592834511698	306.347302569193	259.244042549039	937.691906314779	190.503468265485	331.117520322932	1166.946744658272	453.382619370800	561.845893351064	1055.771871163209	388.495676692198	618.358180568537	1070.352723324126	277.481044775937	573.380465754349	891.808272715446	172.573820396180	538.874873613909	1066.831132922053	151.098662914617	589.870075101881	957.824671818159	126.158679766109	615.247823275720	1150.918668084162	53.181279719660	619.027434033257	797.550216142708	39.969925746495	367.238614331953	872.650393696443	36.029852595279	287.948822634232	956.211297513834	95.923041230990	316.456131163267	1084.891342952566	40.317083607073	289.042918500148	1048.491367153980	1103.370512026480	91.521461865475	1255.707155223383	952.654529872372	137.027392054390	996.500476000119	1092.356814055965	699.506040369078	1183.001962973074	913.566328689811	673.846197461705	
109	32.617428571429	822.501343425145	1021.775443434290	422.262337848942	1044.006912289217	1435.003225103692	247.336537958496	1133.171935423854	1354.826159358706	412.926192664306	1049.009656615519	1436.601972489334	583.242183827479	1041.187455120213	1495.800007369641	402.877990011509	1036.297623014794	951.859334541496	556.812896300259	1041.963543385746	955.204473957541	282.693150916464	1127.551175954283	801.488705304062	531.144217505804	1102.556368480482	678.347734186246	606.685042908908	1196.355451790583	647.771855102941	528.589895888792	1231.357711423795	542.600519331561	553.889314625229	1065.817395727350	739.647798061905	317.429298869282	966.238349346290	636.550557266220	248.681900532023	1034.122252540096	548.499653655535	316.643984739814	1024.912617574090	479.768289196716	325.737824981160	992.484971287078	411.059228652934	314.523030701353	894.694640266921	306.280752157200	259.217097113643	930.038919700780	190.320495243348	331.185349930969	1174.474814137498	455.642242973724	562.263121606654	1068.258459170238	384.446928216136	620.180802670012	1088.541969257292	274.521130666795	574.575038065278	916.154349154304	159.130810431543	542.185938998011	1092.767816328921	148.376810976575	590.966577423242	985.805625616057	116.817992171495	617.527966007233	1182.828439123521	55.727333884261	618.754775637221	789.380663875601	40.097791342281	367.142739360482	864.471011702929	36.052095481661	287.939990571853	948.080051842508	95.908376557943	316.452624698363	1076.698523429647	40.240228368680	289.035455374627	1056.763279257560	1104.658275638846	90.768019506403	1271.787378863332	967.133607664214	139.540690930783	990.992497890155	1092.404712426944	700.158886894600	1161.545523895192	897.144768509763	681.390216803978	
